<svg width="48" height="48" viewBox="0 0 48 48" fill="none" xmlns="http://www.w3.org/2000/svg">
  <rect width="48" height="48" rx="12" fill="#FFB74D"/>
  <!-- Settings/Gear icon for Customization -->
  <path d="M24 16C19.58 16 16 19.58 16 24C16 28.42 19.58 32 24 32C28.42 32 32 28.42 32 24C32 19.58 28.42 16 24 16ZM24 28C21.79 28 20 26.21 20 24C20 21.79 21.79 20 24 20C26.21 20 28 21.79 28 24C28 26.21 26.21 28 24 28Z" fill="white"/>
  <!-- Gear teeth -->
  <path d="M25 10H23L22.5 12.5C21.8 12.7 21.2 13 20.6 13.4L18.4 12.2L17.4 13.2L18.6 15.4C18.2 16 17.9 16.6 17.7 17.3L15.2 17.8V19.8L17.7 20.3C17.9 21 18.2 21.6 18.6 22.2L17.4 24.4L18.4 25.4L20.6 24.2C21.2 24.6 21.8 24.9 22.5 25.1L23 27.6H25L25.5 25.1C26.2 24.9 26.8 24.6 27.4 24.2L29.6 25.4L30.6 24.4L29.4 22.2C29.8 21.6 30.1 21 30.3 20.3L32.8 19.8V17.8L30.3 17.3C30.1 16.6 29.8 16 29.4 15.4L30.6 13.2L29.6 12.2L27.4 13.4C26.8 13 26.2 12.7 25.5 12.5L25 10Z" fill="white"/>
  <!-- Customization elements -->
  <rect x="22" y="22" width="4" height="4" fill="#FFB74D"/>
  <circle cx="24" cy="24" r="1" fill="white"/>
</svg>