<svg width="48" height="48" viewBox="0 0 48 48" fill="none" xmlns="http://www.w3.org/2000/svg">
  <rect width="48" height="48" rx="12" fill="#044C30"/>
  <!-- Headset for Customer Success -->
  <path d="M24 10C18.48 10 14 14.48 14 20V24C14 25.1 14.9 26 16 26H18C19.1 26 20 25.1 20 24V22C20 20.9 19.1 20 18 20H16V20C16 15.58 19.58 12 24 12C28.42 12 32 15.58 32 20V20H30C28.9 20 28 20.9 28 22V24C28 25.1 28.9 26 30 26H32C33.1 26 34 25.1 34 24V20C34 14.48 29.52 10 24 10Z" fill="white"/>
  <!-- Microphone -->
  <path d="M24 28C25.1 28 26 27.1 26 26V22C26 20.9 25.1 20 24 20C22.9 20 22 20.9 22 22V26C22 27.1 22.9 28 24 28Z" fill="white"/>
  <path d="M28 24V26C28 29.31 25.31 32 22 32H26C29.31 32 32 29.31 32 26V24H30C30 27.31 27.31 30 24 30C20.69 30 18 27.31 18 24H16V26C16 29.31 18.69 32 22 32H26" fill="white"/>
  <!-- Support symbol -->
  <circle cx="24" cy="36" r="2" fill="white"/>
</svg>