<svg width="48" height="48" viewBox="0 0 48 48" fill="none" xmlns="http://www.w3.org/2000/svg">
  <rect width="48" height="48" rx="12" fill="#FFB74D"/>
  <!-- Folder icon for Document Sources -->
  <path d="M14 16C14 14.9 14.9 14 16 14H20L22 16H32C33.1 16 34 16.9 34 18V30C34 31.1 33.1 32 32 32H16C14.9 32 14 31.1 14 30V16Z" fill="white"/>
  <!-- Documents inside -->
  <rect x="18" y="20" width="8" height="8" rx="1" fill="#FFB74D"/>
  <rect x="20" y="22" width="8" height="8" rx="1" fill="white"/>
  <rect x="22" y="24" width="8" height="8" rx="1" fill="#FFB74D"/>
  <!-- File lines -->
  <path d="M24 26H28V27H24V26Z" fill="white"/>
  <path d="M24 28H28V29H24V28Z" fill="white"/>
  <path d="M24 30H26V31H24V30Z" fill="white"/>
</svg>