<svg width="48" height="48" viewBox="0 0 48 48" fill="none" xmlns="http://www.w3.org/2000/svg">
  <rect width="48" height="48" rx="12" fill="#FFB74D"/>
  <!-- Building/Enterprise for Enterprise-Ready -->
  <rect x="16" y="20" width="16" height="16" fill="white"/>
  <rect x="18" y="22" width="3" height="3" fill="#FFB74D"/>
  <rect x="23" y="22" width="3" height="3" fill="#FFB74D"/>
  <rect x="28" y="22" width="3" height="3" fill="#FFB74D"/>
  <rect x="18" y="27" width="3" height="3" fill="#FFB74D"/>
  <rect x="23" y="27" width="3" height="3" fill="#FFB74D"/>
  <rect x="28" y="27" width="3" height="3" fill="#FFB74D"/>
  <rect x="18" y="32" width="3" height="3" fill="#FFB74D"/>
  <rect x="23" y="32" width="3" height="3" fill="#FFB74D"/>
  <rect x="28" y="32" width="3" height="3" fill="#FFB74D"/>
  <!-- Security elements -->
  <path d="M20 12L24 8L28 12V16H20V12Z" fill="white"/>
  <circle cx="24" cy="14" r="1" fill="#FFB74D"/>
  <!-- Metrics/Analytics -->
  <rect x="12" y="16" width="2" height="8" fill="white"/>
  <rect x="15" y="18" width="2" height="6" fill="white"/>
  <rect x="31" y="14" width="2" height="10" fill="white"/>
  <rect x="34" y="16" width="2" height="8" fill="white"/>
  <!-- Shield -->
  <path d="M24 36L20 34V30C20 28.9 20.9 28 22 28H26C27.1 28 28 28.9 28 30V34L24 36Z" fill="white"/>
</svg>
