<svg width="48" height="48" viewBox="0 0 48 48" fill="none" xmlns="http://www.w3.org/2000/svg">
  <rect width="48" height="48" rx="12" fill="#FFB74D"/>
  <!-- Brain/AI for Grounded Intelligence -->
  <path d="M24 12C20.69 12 18 14.69 18 18C18 19.1 18.1 19.6 18.3 20C18.1 20.4 18 20.9 18 21.3C18 24.61 20.69 27.3 24 27.3C27.31 27.3 30 24.61 30 21.3C30 20.9 29.9 20.4 29.7 20C29.9 19.6 30 19.1 30 18C30 14.69 27.31 12 24 12Z" fill="white"/>
  <!-- Document/Data elements -->
  <rect x="14" y="30" width="6" height="8" rx="1" fill="white"/>
  <rect x="28" y="30" width="6" height="8" rx="1" fill="white"/>
  <rect x="21" y="32" width="6" height="6" rx="1" fill="white"/>
  <!-- Data lines -->
  <path d="M16 32H18M16 34H18M16 36H18" stroke="#FFB74D" stroke-width="1"/>
  <path d="M30 32H32M30 34H32M30 36H32" stroke="#FFB74D" stroke-width="1"/>
  <path d="M23 34H25M23 36H25" stroke="#FFB74D" stroke-width="1"/>
  <!-- Intelligence indicators -->
  <circle cx="20" cy="20" r="1" fill="#FFB74D"/>
  <circle cx="28" cy="20" r="1" fill="#FFB74D"/>
  <path d="M22 24H26M24 22V26" stroke="#FFB74D" stroke-width="1"/>
</svg>
