<svg width="48" height="48" viewBox="0 0 48 48" fill="none" xmlns="http://www.w3.org/2000/svg">
  <rect width="48" height="48" rx="12" fill="#FFB74D"/>
  <!-- People/Users for Human-Centered -->
  <circle cx="18" cy="16" r="3" fill="white"/>
  <path d="M15 22C15 19.79 16.79 18 19 18H17C19.21 18 21 19.79 21 22V24H15V22Z" fill="white"/>
  <circle cx="30" cy="16" r="3" fill="white"/>
  <path d="M27 22C27 19.79 28.79 18 31 18H29C31.21 18 33 19.79 33 22V24H27V22Z" fill="white"/>
  <!-- Trust/Heart elements -->
  <path d="M24 28C22.5 26.5 20 26.5 18.5 28C17 29.5 17 32 18.5 33.5C20 35 24 38 24 38S28 35 29.5 33.5C31 32 31 29.5 29.5 28C28 26.5 25.5 26.5 24 28Z" fill="white"/>
  <!-- Connection lines -->
  <path d="M21 20H27" stroke="white" stroke-width="2"/>
  <path d="M18 24H30" stroke="white" stroke-width="1"/>
  <!-- Trust indicators -->
  <circle cx="16" cy="12" r="1" fill="white"/>
  <circle cx="32" cy="12" r="1" fill="white"/>
  <path d="M16 12L18 14M32 12L30 14" stroke="white" stroke-width="1"/>
</svg>
